<svg xmlns="http://www.w3.org/2000/svg" viewBox="0 0 64 64" width="64px" height="64px" fill="#63d471">
    <path
        d="M32 2C25.2 2 20 6.2 20 11.6 20 16 24.2 20 30 20h4c5.8 0 10-4 10-8.4C44 6.2 38.8 2 32 2zM20 12.8C14.8 12.8 10 16.8 10 22.2c0 4.2 4.4 7.8 10 7.8 1 0 2-.2 2.8-.4-.6-1.4-.8-2.8-.8-4.4 0-4.6 3.4-8.4 8-9.2-.6-2.8-3-4.6-5.8-4.6zm24 0c-2.8 0-5.2 1.8-5.8 4.6 4.6.8 8 4.6 8 9.2 0 1.6-.2 3-.8 4.4.8.2 1.8.4 2.8.4 5.6 0 10-3.6 10-7.8 0-5.4-4.8-9.4-10-9.4zM30 24c-3.4 0-6.4 2-8 5-3.8.2-7.6 1.8-9.8 4.8-2.2 3-2.8 6.8-2.4 10.4.2 1.6 1.4 2.6 2.8 2.6h1.2c.4 0 .8-.2 1.2-.4 1 2.8 3.8 4.8 6.8 4.8h1.6c.8 0 1.4.6 1.4 1.4v.2c0 2.8 2.2 5 5 5s5-2.2 5-5v-.2c0-.8.6-1.4 1.4-1.4h1.6c3 0 5.8-2 6.8-4.8.4.2.8.4 1.2.4h1.2c1.4 0 2.6-1 2.8-2.6.4-3.6-.2-7.4-2.4-10.4-2.2-3-6-4.6-9.8-4.8-1.6-3-4.6-5-8-5z" />
</svg>